<mxfile host="app.diagrams.net" modified="2024-06-06T00:34:01.873Z" agent="Mozilla/5.0 (Windows NT 10.0; Win64; x64) AppleWebKit/537.36 (KHTML, like Gecko) Chrome/125.0.0.0 Safari/537.36" etag="8KWtq5bxs31L4xLfGP-P" version="24.4.14" type="github">
  <diagram name="PÃ¡gina-1" id="eSaM8MeCAI_IhFZzQvYH">
    <mxGraphModel dx="1674" dy="1949" grid="1" gridSize="10" guides="1" tooltips="1" connect="1" arrows="1" fold="1" page="1" pageScale="1" pageWidth="827" pageHeight="1169" math="0" shadow="0">
      <root>
        <mxCell id="0" />
        <mxCell id="1" parent="0" />
        <mxCell id="6GHM-3sfs2GM4bQP3gWd-2" value="&lt;font style=&quot;font-size: 24px;&quot;&gt;Produtos&lt;/font&gt;" style="whiteSpace=wrap;html=1;aspect=fixed;" vertex="1" parent="1">
          <mxGeometry x="160" y="-80" width="244" height="244" as="geometry" />
        </mxCell>
        <mxCell id="6GHM-3sfs2GM4bQP3gWd-7" style="edgeStyle=orthogonalEdgeStyle;rounded=0;orthogonalLoop=1;jettySize=auto;html=1;" edge="1" parent="1" source="6GHM-3sfs2GM4bQP3gWd-3">
          <mxGeometry relative="1" as="geometry">
            <mxPoint x="510" y="325" as="targetPoint" />
          </mxGeometry>
        </mxCell>
        <mxCell id="6GHM-3sfs2GM4bQP3gWd-3" value="Actor" style="shape=umlActor;verticalLabelPosition=bottom;verticalAlign=top;html=1;outlineConnect=0;" vertex="1" parent="1">
          <mxGeometry x="50" y="230" width="110" height="190" as="geometry" />
        </mxCell>
        <mxCell id="6GHM-3sfs2GM4bQP3gWd-4" value="&lt;span style=&quot;font-size: 24px;&quot;&gt;Carrinho&lt;/span&gt;" style="whiteSpace=wrap;html=1;aspect=fixed;" vertex="1" parent="1">
          <mxGeometry x="520" y="200" width="270" height="270" as="geometry" />
        </mxCell>
        <mxCell id="6GHM-3sfs2GM4bQP3gWd-5" value="ID" style="text;html=1;align=center;verticalAlign=middle;whiteSpace=wrap;rounded=0;" vertex="1" parent="1">
          <mxGeometry x="540" y="210" width="60" height="30" as="geometry" />
        </mxCell>
        <mxCell id="6GHM-3sfs2GM4bQP3gWd-6" value="" style="rounded=1;whiteSpace=wrap;html=1;" vertex="1" parent="1">
          <mxGeometry x="600" y="-80" width="160" height="140" as="geometry" />
        </mxCell>
        <mxCell id="6GHM-3sfs2GM4bQP3gWd-8" value="Banana" style="rounded=0;whiteSpace=wrap;html=1;" vertex="1" parent="1">
          <mxGeometry x="222" y="90" width="120" height="60" as="geometry" />
        </mxCell>
        <mxCell id="6GHM-3sfs2GM4bQP3gWd-9" value="ID" style="text;html=1;align=center;verticalAlign=middle;whiteSpace=wrap;rounded=0;" vertex="1" parent="1">
          <mxGeometry x="620" y="-50" width="60" height="30" as="geometry" />
        </mxCell>
        <mxCell id="6GHM-3sfs2GM4bQP3gWd-10" value="Quantidade" style="text;html=1;align=center;verticalAlign=middle;whiteSpace=wrap;rounded=0;" vertex="1" parent="1">
          <mxGeometry x="640" y="-30" width="60" height="30" as="geometry" />
        </mxCell>
        <mxCell id="6GHM-3sfs2GM4bQP3gWd-11" value="&lt;font style=&quot;font-size: 18px;&quot;&gt;Item Carrinho&lt;/font&gt;" style="text;html=1;align=center;verticalAlign=middle;whiteSpace=wrap;rounded=0;" vertex="1" parent="1">
          <mxGeometry x="620" y="-120" width="120" height="30" as="geometry" />
        </mxCell>
        <mxCell id="6GHM-3sfs2GM4bQP3gWd-12" style="edgeStyle=orthogonalEdgeStyle;rounded=0;orthogonalLoop=1;jettySize=auto;html=1;entryX=0.593;entryY=0;entryDx=0;entryDy=0;entryPerimeter=0;" edge="1" parent="1" source="6GHM-3sfs2GM4bQP3gWd-6" target="6GHM-3sfs2GM4bQP3gWd-4">
          <mxGeometry relative="1" as="geometry" />
        </mxCell>
        <mxCell id="6GHM-3sfs2GM4bQP3gWd-13" style="edgeStyle=orthogonalEdgeStyle;rounded=0;orthogonalLoop=1;jettySize=auto;html=1;entryX=0.992;entryY=0.311;entryDx=0;entryDy=0;entryPerimeter=0;" edge="1" parent="1" source="6GHM-3sfs2GM4bQP3gWd-6" target="6GHM-3sfs2GM4bQP3gWd-2">
          <mxGeometry relative="1" as="geometry" />
        </mxCell>
      </root>
    </mxGraphModel>
  </diagram>
</mxfile>
